<?xml version="1.0" standalone="no"?>
<!DOCTYPE svg PUBLIC "-//W3C//DTD SVG 20010904//EN"
 "http://www.w3.org/TR/2001/REC-SVG-20010904/DTD/svg10.dtd">
<svg version="1.0" xmlns="http://www.w3.org/2000/svg"
 width="338.000000pt" height="338.000000pt" viewBox="0 0 338.000000 338.000000"
 preserveAspectRatio="xMidYMid meet">
<metadata>
Created by potrace 1.11, written by Peter Selinger 2001-2013
</metadata>
<g transform="translate(0.000000,338.000000) scale(0.100000,-0.100000)"
fill="#000000" stroke="none">
<path d="M1574 3221 c-120 -65 -166 -92 -260 -152 -80 -51 -212 -140 -239
-162 -5 -4 -37 -28 -70 -53 -107 -81 -112 -85 -229 -187 -77 -67 -214 -205
-274 -276 -26 -30 -64 -73 -84 -95 -21 -23 -38 -47 -38 -53 0 -7 -3 -13 -7
-13 -5 0 -19 -17 -33 -38 -14 -20 -29 -41 -33 -47 -60 -76 -180 -313 -221
-437 -27 -80 -64 -222 -71 -273 -3 -16 -6 -93 -9 -170 -4 -148 5 -248 30 -330
8 -27 16 -57 18 -65 11 -54 118 -267 143 -283 7 -4 13 -13 13 -20 0 -16 141
-163 205 -214 135 -108 339 -193 500 -208 59 -6 194 -6 245 0 146 17 403 116
383 148 -4 7 -22 33 -40 58 -72 101 -148 282 -172 409 -20 107 -22 126 -23
206 0 98 10 181 25 213 19 39 60 63 105 63 78 -1 126 -61 116 -145 -4 -34 -5
-132 -2 -217 1 -35 39 -180 64 -240 52 -129 183 -294 283 -358 14 -9 28 -19
31 -22 3 -3 32 -20 65 -37 164 -86 380 -107 581 -57 32 8 67 16 76 18 40 10
178 76 233 111 82 51 172 129 226 193 24 30 54 66 66 80 12 14 30 42 40 61 10
20 21 38 25 42 8 5 79 165 82 183 1 6 5 17 9 23 25 40 38 231 27 393 -8 111
-51 305 -93 420 -51 139 -168 380 -189 388 -4 2 -8 8 -8 12 0 8 -45 80 -72
115 -236 312 -482 544 -818 771 -77 51 -144 94 -150 94 -5 0 -10 5 -10 10 0 6
-4 10 -9 10 -5 0 -43 20 -85 45 -233 138 -249 141 -352 86z"/>
</g>
</svg>
