<svg xmlns="http://www.w3.org/2000/svg" style = "display: none;">
 <defs>
  <symbol id="peach" viewBox="0 0 512 512">
    <path d="M506 340c-7-6-10-3-18-1-24 66-83 108-149 108-29 0-57-8-82-23 5 8 11 15 18 22 25 24 61 39 99 39 76 0 124-47 138-131 1-6-1-11-6-14zM175 447c-68 0-126-44-149-106-8-4-13-7-20-1-5 3-7 8-6 14 14 84 61 131 138 131a143 143 0 0 0 115-59c-24 14-50 21-78 21z" fill="#fff"/><path d="M262 29c-4-2-10-2-14 0C201 54 46 145 46 283c0 74 58 134 129 134 23 0 46-6 65-18-24-30-35-69-29-107 1-9 8-14 17-13 8 1 14 9 12 17-4 32 5 63 25 87 19 22 46 34 74 34 60 0 113-42 127-105 4-39 3-174-204-283z" fill="#fff"/>
  </symbol>
  <symbol id="chest" viewBox="0 0 24 24">
    <path d="M5 4h14a3 3 0 0 1 3 3v4h-7v-1H9v1H2V7a3 3 0 0 1 3-3m6 7h2v2h-2v-2m-9 1h7v1l2 2h2l2-2v-1h7v8H2v-8z"/>
  </symbol>
  <symbol id="heart" viewBox="0 0 24 24">
    <path d="M12 21.4L10.6 20C5.4 15.4 2 12.3 2 8.5 2 5.5 4.4 3 7.5 3A6 6 0 0 1 12 5a6 6 0 0 1 4.5-2c3 0 5.5 2.4 5.5 5.5 0 3.8-3.4 6.9-8.6 11.5L12 21.4z"/>
  </symbol>
  <symbol id="menu" viewBox="0 0 24 24">
    <path d="M3 6h18v2H3V6m0 5h18v2H3v-2m0 5h18v2H3v-2z"/>
  </symbol>
  <symbol id="megaphone" viewBox="0 0 24 24">
    <path fill="none" d="M0 0h24v24H0z"/><g fill="#757575"><path d="M2 7h2v8H2zM20 3v1L5 8v10l1 1 4 1a1 1 0 0 0 1 0l2-4 7 2v1h2V3h-2zM10 18l-3-1v-2l4 1-1 2z"/></g>
  </symbol>
  <symbol id="trending" viewBox="0 0 24 24">
    <path d="M21.5 4.3L20 3.8v9L22.6 7a2 2 0 0 0-1.1-2.7M2 8.1L7 20a2 2 0 0 0 1.7 1.3c.3 0 .6 0 .8-.2l7.4-3a2 2 0 0 0 1.1-2.7L13 3.5a2 2 0 0 0-2.6-1.1l-7.3 3A2 2 0 0 0 2 8.2M18 4.3a2 2 0 0 0-2-2h-1.4l3.4 8.3"/>
  </symbol>
  <symbol id="ranking" viewBox="0 0 24 24">
    <path d="M7 20h10v2H7zM21 3h-3l-2-1H8L6 3H3L2 4v5l5 4 4 2v1H9l-1 1v2h8v-2l-1-1h-2v-1l4-2 5-4V4l-1-1zM4 8V5h2v4L4 8zm16 0l-2 1V5h2v3z"/>
  </symbol>
  <symbol id="newsboard" viewBox="0 0 24 24">
    <path d="M12 2.5L9.5 5h5L12 2.5M6 9v3h5V9h3v9h-2v-4H7v4h11V9m-6-9l5 5h3a2 2 0 0 1 2 2v13a2 2 0 0 1-2 2H4a2 2 0 0 1-2-2V7c0-1.1.9-2 2-2h3l5-5"/>
  </symbol>
  <symbol id="contact" viewBox="0 0 24 24">
    <path d="M17 12V3a1 1 0 0 0-1-1H3a1 1 0 0 0-1 1v14l4-4h10a1 1 0 0 0 1-1m4-6h-2v9H6v2a1 1 0 0 0 1 1h11l4 4V7a1 1 0 0 0-1-1z"/>
  </symbol>
  <symbol id="info" viewBox="0 0 24 24">
    <path d="M15 11.3l-.8.9c-.8.7-1.2 1.3-1.2 2.8h-2v-.5a4 4 0 0 1 1.2-2.8l1.2-1.3c.4-.3.6-.8.6-1.4a2 2 0 0 0-2-2 2 2 0 0 0-2 2H8a4 4 0 0 1 4-4 4 4 0 0 1 4 4c0 .9-.4 1.7-1 2.3M13 19h-2v-2h2M12 2A10 10 0 0 0 2 12a10 10 0 0 0 10 10 10 10 0 0 0 10-10A10 10 0 0 0 12 2z"/>
  </symbol>
  <symbol id="bonus" viewBox="0 0 24 24">
    <path d="M3 14v6c0 1.1.9 2 2 2h6v-8H3zM13 14v8h6a2 2 0 0 0 2-2v-6h-8zM20 8h-3.1a5 5 0 0 0 1.2-.9 3 3 0 0 0 0-4.2 3 3 0 0 0-4.2 0c-1.7 1.6-1.9 4.7-1.9 5V8c0-.4-.2-3.5-1.9-5.1a3 3 0 0 0-4.2 0 3 3 0 0 0 0 4.2c.3.4.8.7 1.2.9H4a2 2 0 0 0-2 2v3h9V9h2v4h9v-3a2 2 0 0 0-2-2zM7.3 5.7a1 1 0 0 1 1.4-1.4c.6.6 1 1.6 1.1 2.5-.9-.2-2-.5-2.5-1zm6.9 1.1c.2-.9.5-2 1-2.5a1 1 0 0 1 1.5 0c.4.4.4 1 0 1.4-.6.6-1.6 1-2.5 1.1z"/>
  </symbol>
  <symbol id="fb" viewBox="0 0 24 24">
    <path d="M17 2v4h-2c-.7 0-1 .8-1 1.5V10h3v4h-3v8h-4v-8H7v-4h3V6a4 4 0 0 1 4-4h3z"/>
  </symbol>
  <symbol id="tw" viewBox="0 0 24 24">
    <path d="M22.5 6c-.8.3-1.6.6-2.5.7.9-.5 1.6-1.4 1.9-2.4-.8.5-1.8.9-2.7 1a4.3 4.3 0 0 0-7.3 4C8.2 9 5 7.3 3 4.8a4.2 4.2 0 0 0 1.3 5.7c-.7 0-1.3-.2-2-.5 0 2.1 1.6 3.8 3.5 4.2a4.2 4.2 0 0 1-2 .1c.6 1.7 2.2 3 4 3A8.5 8.5 0 0 1 1.6 19c2 1.2 4.2 1.9 6.6 1.9 7.9 0 12.2-6.5 12.2-12.2v-.6C21.2 7.6 22 7 22.5 6z"/>
  </symbol>
  <symbol id="gh" viewBox="0 0 24 24">
    <path d="M20.4 8.5c.1-.4.7-2-.2-4.1 0 0-1.3-.4-4.3 1.6-1.2-.3-2.6-.4-3.9-.4-1.3 0-2.7 0-4 .4-2.9-2-4.2-1.6-4.2-1.6a5.6 5.6 0 0 0-.2 4.1A6 6 0 0 0 2 12.7c0 6.5 4.2 8 10 8s10-1.5 10-8a6 6 0 0 0-1.6-4.2M12 19.4c-4.1 0-7.5-.2-7.5-4.2 0-1 .5-1.9 1.3-2.6 1.3-1.2 3.6-.6 6.2-.6s4.9-.6 6.2.6c.8.7 1.3 1.6 1.3 2.6 0 4-3.4 4.2-7.5 4.2M8.9 13c-.9 0-1.5 1-1.5 2.2 0 1.3.6 2.3 1.5 2.3.8 0 1.5-1 1.5-2.3 0-1.2-.7-2.2-1.5-2.2m6.2 0c-.8 0-1.5 1-1.5 2.2 0 1.3.7 2.3 1.5 2.3.9 0 1.5-1 1.5-2.3 0-1.2-.6-2.2-1.5-2.2z"/>
  </symbol>
  <symbol id="st" viewBox="-75 -75 1150 1150">
  <path d="M716 694c-68 369-90 377-356 119C4 857-14 838 141 501-14 164-5 145 361 189 625-69 647-61 715 308c320 181 320 205 0 386z"/>
  </symbol>
  <symbol id="lo" viewBox="0 0 24 24">
  <path d="M12 17a2 2 0 0 0 2-2 2 2 0 0 0-2-2 2 2 0 0 0-2 2 2 2 0 0 0 2 2m6-9a2 2 0 0 1 2 2v10a2 2 0 0 1-2 2H6a2 2 0 0 1-2-2V10c0-1.1.9-2 2-2h1V6a5 5 0 0 1 5-5 5 5 0 0 1 5 5v2h1m-6-5a3 3 0 0 0-3 3v2h6V6a3 3 0 0 0-3-3z"/>
  </symbol>
 </defs>
</svg>