<svg version="1" xmlns="http://www.w3.org/2000/svg" width="682.667" height="682.667" viewBox="0 0 512.000000 512.000000"><path d="M248.4 61.5c-10.2 4.3-43.7 24.7-63.4 38.6-42.4 29.9-79.1 65.9-101.4 99.4-9.9 14.8-15.2 24.3-23.1 41.9-5.3 11.7-11.2 32.9-13.6 48.9-1.5 9.4-2 35.9-.8 42 .5 2.7 1.1 6.3 1.3 8 1.6 12.9 10.7 37 17.5 46.6 1.2 1.6 2.1 3.2 2.1 3.5 0 1.6 10.4 14 18 21.6 10.1 10.1 12.1 11.8 20.9 17.5 22 14.2 44.7 20.6 70.5 20 7.7-.2 15.7-.6 17.6-.9 12.2-2 31.1-8.6 40.6-14.1l4.5-2.6-3.5-4.7c-13.6-17.9-23.4-42.7-26.2-66.2-1.5-12-.6-34.6 1.5-40.1 1.4-3.6 6.1-7.6 10.3-8.7 2-.6 3.8-.8 4-.6.3.2 1.3.5 2.4.7 4 .8 7.5 3.2 9.6 6.6 1.9 2.9 2.2 4.7 1.9 11.1-.8 20.4-.3 29.3 2.3 40.5 9.7 41 40.8 70.8 81.6 78.4 7.8 1.4 30 .7 39.5-1.4 46.8-9.9 83.4-43.3 98.5-89.6 3.6-11.1 4.7-19.6 4.4-34.8-1.4-77.2-47.8-154.2-128.9-214-6-4.4-11.5-8.4-12-8.8-5.4-4-10.5-7.3-11.3-7.3-.6 0-1.2-.4-1.4-.8-.6-1.5-27.2-17.6-43.1-26.1-10.4-5.6-15.3-6.7-20.3-4.6z"/></svg>