<?xml version="1.0" standalone="no"?>
<!DOCTYPE svg PUBLIC "-//W3C//DTD SVG 20010904//EN"
 "http://www.w3.org/TR/2001/REC-SVG-20010904/DTD/svg10.dtd">
<svg version="1.0" xmlns="http://www.w3.org/2000/svg"
 width="512.000000pt" height="512.000000pt" viewBox="0 0 512.000000 512.000000"
 preserveAspectRatio="xMidYMid meet">
<metadata>
Created by potrace 1.11, written by Peter Selinger 2001-2013
</metadata>
<g transform="translate(0.000000,512.000000) scale(0.100000,-0.100000)"
fill="#000000" stroke="none">
<path d="M2484 4505 c-53 -22 -279 -152 -405 -233 -436 -278 -771 -564 -1053
-897 -186 -219 -304 -407 -421 -669 -50 -113 -119 -360 -140 -501 -10 -74 -14
-359 -4 -408 5 -27 11 -63 13 -80 16 -129 107 -370 175 -466 12 -16 21 -32 21
-35 0 -16 104 -140 180 -216 101 -101 121 -118 209 -175 220 -142 447 -206
705 -200 77 2 157 6 176 9 122 20 311 86 406 141 l45 26 -35 47 c-136 179
-234 427 -262 662 -15 120 -6 346 15 401 14 36 61 76 103 87 20 6 38 8 40 6 3
-2 13 -5 24 -7 40 -8 75 -32 96 -66 19 -29 22 -47 19 -111 -8 -203 -3 -293 23
-405 97 -409 408 -709 816 -784 78 -14 300 -7 395 14 468 99 834 433 985 896
36 111 47 196 44 348 -9 479 -192 964 -532 1409 -69 90 -92 118 -182 216 -167
183 -367 361 -575 515 -60 44 -115 84 -120 88 -54 40 -105 73 -113 73 -6 0
-12 4 -14 8 -6 15 -272 176 -431 261 -104 56 -153 67 -203 46z"/>
</g>
</svg>
